<?xml version="1.0" encoding="iso-8859-1"?>
<!-- Uploaded to: SVG Repo, www.svgrepo.com, Generator: SVG Repo Mixer Tools -->
<!DOCTYPE svg PUBLIC "-//W3C//DTD SVG 1.1//EN" "http://www.w3.org/Graphics/SVG/1.1/DTD/svg11.dtd">
<svg fill="#000000" height="800px" width="800px" version="1.1" id="Capa_1" xmlns="http://www.w3.org/2000/svg" xmlns:xlink="http://www.w3.org/1999/xlink" 
	 viewBox="0 0 432.246 432.246" xml:space="preserve">
<path d="M431.875,54.37c-0.713-1.646-2.336-2.711-4.129-2.711H4.5c-1.794,0-3.416,1.066-4.129,2.711
	c-0.713,1.646-0.38,3.559,0.847,4.867l16.045,17.114v20.087c0,2.485,2.015,4.5,4.5,4.5h6.433v231.52H25.79
	c-2.485,0-4.5,2.015-4.5,4.5v39.128c0,2.485,2.015,4.5,4.5,4.5h380.665c2.485,0,4.5-2.015,4.5-4.5v-39.128
	c0-2.485-2.015-4.5-4.5-4.5h-2.405v-231.52h6.433c2.485,0,4.5-2.015,4.5-4.5V76.352l16.045-17.114
	C432.255,57.929,432.588,56.017,431.875,54.37z M74.804,371.586H30.29v-30.128h44.514V371.586z M56.391,117.625v214.833H37.196
	V117.625H56.391z M37.196,108.625v-7.687h19.195v7.687H37.196z M348.442,371.586H83.804V358.72h264.638V371.586z M309.442,209.69
	v140.03h-9.229V234.529c0-2.485-2.015-4.5-4.5-4.5H136.532c-2.485,0-4.5,2.015-4.5,4.5V349.72h-9.229V209.69H309.442z
	 M133.689,200.69v-48.54h15.839v48.54H133.689z M158.528,200.69v-48.54h15.838v48.54H158.528z M183.365,200.69v-48.54h15.838v48.54
	H183.365z M208.203,200.69v-48.54h15.839v48.54H208.203z M233.042,200.69v-48.54h15.839v48.54H233.042z M257.881,200.69v-48.54
	h15.838v48.54H257.881z M282.719,200.69v-48.54h15.838v48.54H282.719z M307.557,193.129V152.15h35.528L307.557,193.129z
	 M182.346,349.72h-20.277v-11.437h20.277V349.72z M211.623,349.72h-20.277v-11.437h20.277V349.72z M240.899,349.72h-20.275v-11.437
	h20.275V349.72z M270.176,349.72h-20.277v-11.437h20.277V349.72z M283.27,329.283H148.975c-2.485,0-4.5,2.015-4.5,4.5
	c0,2.485,2.015,4.5,4.5,4.5h4.094v11.437h-12.036V239.029h150.181V349.72h-12.037v-11.437h4.094c2.485,0,4.5-2.015,4.5-4.5
	C287.77,331.298,285.755,329.283,283.27,329.283z M124.689,193.129L89.16,152.15h35.529V193.129z M119.331,200.69H83.804V159.71
	L119.331,200.69z M113.804,209.69v15.839h-30V209.69H113.804z M113.804,234.529v15.838h-30v-15.838H113.804z M113.804,259.366
	v15.838h-30v-15.838H113.804z M113.804,284.204v15.839h-30v-15.839H113.804z M113.804,309.043v15.839h-30v-15.839H113.804z
	 M113.804,333.882v15.838h-30v-15.838H113.804z M348.442,349.72h-30v-15.838h30V349.72z M348.442,324.882h-30v-15.839h30V324.882z
	 M348.442,300.043h-30v-15.839h30V300.043z M348.442,275.204h-30v-15.838h30V275.204z M348.442,250.366h-30v-15.838h30V250.366z
	 M348.442,225.529h-30V209.69h30V225.529z M348.442,200.69h-35.527l35.527-40.979V200.69z M352.942,143.15H79.304
	c-2.485,0-4.5,2.015-4.5,4.5v184.809h-9.413v-231.52h301.464v231.52h-9.413V147.65C357.442,145.164,355.427,143.15,352.942,143.15z
	 M401.955,371.586h-44.514v-30.128h44.514V371.586z M395.05,117.625v214.833h-19.195V117.625H395.05z M375.855,108.625v-7.687
	h19.195v7.687H375.855z M405.983,91.939H26.263V79.072h379.72V91.939z M408.533,70.072H23.713l-8.825-9.413h402.471L408.533,70.072z
	"/>
</svg>