<svg fill="#000000" height="200px" width="200px" version="1.1" id="Layer_1" xmlns="http://www.w3.org/2000/svg" xmlns:xlink="http://www.w3.org/1999/xlink" viewBox="0 0 512.005 512.005" xml:space="preserve"><g id="SVGRepo_bgCarrier" stroke-width="0"></g><g id="SVGRepo_tracerCarrier" stroke-linecap="round" stroke-linejoin="round"></g><g id="SVGRepo_iconCarrier"> <g> <g> <path d="M92.069,53.844c7.206,11.563,6.881,26.857-1.948,38.26l-23.215,29.983c6.044,4.178,13.368,6.636,21.272,6.646 c20.734,0.028,37.565-16.759,37.591-37.493C125.795,71.786,111.019,55.771,92.069,53.844z"></path> </g> </g> <g> <g> <path d="M107.39,146.141l-18.691-0.384c-9.368-4.169-36.653-16.312-45.605-20.296l33.774-43.617 c5.667-7.319,4.328-17.847-2.991-23.514c-7.319-5.668-17.846-4.328-23.514,2.991L3.51,121.829 c-6.656,8.594-3.48,21.162,6.438,25.575l55.336,24.627l-17.33-2.683c-0.141,1.678,0,303.658,0,303.658 c0,11.752,9.526,21.279,21.278,21.279s21.279-9.527,21.279-21.279V313.173h16.55v159.832c0,7.055-1.938,13.656-5.301,19.309 c2.711,1.252,5.719,1.97,8.901,1.97c11.752,0,21.75-9.527,21.75-21.278V173.48h0.001C132.433,158.4,121.49,146.16,107.39,146.141z "></path> </g> </g> <g> <g> <path d="M147.597,19.337c-3.539-3.025-8.861-2.608-11.881,0.932l-16.353,19.136c-3.025,3.537-2.608,8.857,0.932,11.882 c3.545,3.029,8.865,2.601,11.881-0.932l16.353-19.136C151.553,27.681,151.136,22.361,147.597,19.337z"></path> </g> </g> <g> <g> <path d="M184.439,53.092c-1.365-4.451-6.079-6.952-10.529-5.588l-36.514,11.194c-4.45,1.364-6.952,6.078-5.588,10.528 c1.364,4.449,6.077,6.952,10.529,5.588l36.514-11.194C183.3,62.256,185.802,57.542,184.439,53.092z"></path> </g> </g> <g> <g> <path d="M499.64,242.823h-34.063c-6.827,0-12.361,5.535-12.361,12.361v15.304l-2.545,2.684l-18.655-100.015 c-1.218-6.529-6.916-11.263-13.558-11.263H188.031c-6.641,0-12.34,4.734-13.558,11.263l-22.064,118.287v141.386h5.716v29.26 c0,18.004,14.595,32.6,32.6,32.6c18.005,0,32.6-14.596,32.6-32.6v-29.26h29.456v11.05c0,6.173,5.004,11.178,11.178,11.178h78.571 c6.173,0,11.178-5.004,11.178-11.178v-11.05h29.456v29.26c0,18.004,14.595,32.6,32.6,32.6c18.005,0,32.6-14.596,32.6-32.6v-29.26 h6.352c12.064,0,21.843-9.779,21.843-21.843V340.89c0-17.473-7.688-33.141-19.854-43.837l12.706-13.396h30.231 c6.827,0,12.361-5.535,12.361-12.361v-16.112C512.001,248.357,506.467,242.823,499.64,242.823z M189.859,387.808 c-15.795,0-28.599-12.813-28.599-28.616c0-15.805,12.805-28.616,28.599-28.616c15.795,0,28.599,12.813,28.599,28.616 C218.458,374.997,205.654,387.808,189.859,387.808z M335.403,410.217h-64.319c-5.747,0-10.407-4.659-10.407-10.407 c0-5.747,4.659-10.407,10.407-10.407h64.319c5.747,0,10.407,4.659,10.407,10.407C345.81,405.557,341.151,410.217,335.403,410.217z M352.585,370.569h-98.682c-5.747,0-10.407-4.659-10.407-10.407c0-5.747,4.659-10.407,10.407-10.407h98.682 c5.747,0,10.407,4.659,10.407,10.407C362.991,365.91,358.331,370.569,352.585,370.569z M336.146,282.527 c1.579-10.957,11.004-19.412,22.391-19.412s20.812,8.455,22.391,19.412H336.146z M358.537,240.129 c-24.075,0-43.841,18.741-45.51,42.399H188.293c-2.103,0-4.178,0.116-6.223,0.334l17.42-93.383h76.482 c-1.047,1.698-1.661,3.691-1.661,5.833v1.816c0,6.154,4.989,11.143,11.143,11.143h35.583c6.154,0,11.143-4.989,11.143-11.143 c0-2.067,0.211-4.612-1.661-7.647h76.482l17.42,93.383c-4.052-0.429-5.238-0.334-20.37-0.334 C402.38,258.869,382.612,240.129,358.537,240.129z M416.629,387.808c-15.795,0-28.599-12.813-28.599-28.616 c0-15.805,12.805-28.616,28.599-28.616s28.599,12.813,28.599,28.616C445.227,374.997,432.424,387.808,416.629,387.808z"></path> </g> </g> </g></svg>