<svg width="234" height="234" viewBox="0 0 234 234" fill="none" xmlns="http://www.w3.org/2000/svg">
    <g clip-path="url(#clip0_58_7)">
        <path fill-rule="evenodd" clip-rule="evenodd"
            d="M47.9883 0H186.012C212.405 0 234 21.5947 234 47.9883V186.012C234 212.405 212.405 234 186.012 234H47.9883C21.5947 234 0 212.405 0 186.012V47.9883C0 21.5947 21.5947 0 47.9883 0Z"
            fill="#ABABAB" />
        <path
            d="M154.184 111.324C153.516 111.004 152.836 110.693 152.145 110.4C150.948 88.2984 138.873 75.6432 118.595 75.5152C106.895 75.4375 96.4196 80.2089 89.8932 90.1128L101.045 97.7635C105.684 90.7252 112.964 89.2261 118.325 89.2261H118.508C125.185 89.2673 130.226 91.2097 133.485 94.9939C135.857 97.7544 137.447 101.561 138.233 106.369C132.31 105.364 125.912 105.053 119.065 105.446C99.7879 106.557 87.3932 117.8 88.225 133.421C88.6455 141.351 92.5942 148.165 99.34 152.621C105.044 156.387 112.393 158.229 120.025 157.808C130.112 157.26 138.019 153.412 143.54 146.378C147.73 141.035 150.381 134.111 151.551 125.391C156.355 128.289 159.915 132.105 161.885 136.693C165.226 144.49 165.422 157.306 154.965 167.753C145.806 176.908 134.792 180.865 118.151 180.989C99.6873 180.852 85.725 174.929 76.6484 163.389C68.1476 152.584 63.7555 136.977 63.591 117C63.7555 97.0231 68.1476 81.4155 76.6484 70.6113C85.725 59.0712 99.6873 53.1481 118.151 53.011C136.743 53.1481 150.948 59.0986 160.377 70.6935C164.997 76.379 168.48 83.5315 170.779 91.8678L183.845 88.3806C181.062 78.1203 176.683 69.2767 170.719 61.9414C158.635 47.0742 140.966 39.46 118.197 39.3H118.106C95.3821 39.46 77.9052 47.1061 66.1687 62.0282C55.7209 75.305 50.3325 93.7828 50.1543 116.945V117.055C50.3325 140.217 55.7209 158.695 66.1687 171.972C77.9052 186.894 95.3821 194.544 118.106 194.7H118.197C138.398 194.558 152.639 189.27 164.371 177.547C179.718 162.214 179.256 142.996 174.197 131.195C170.568 122.736 163.649 115.862 154.184 111.324ZM119.303 144.12C110.857 144.595 102.078 140.802 101.643 132.681C101.324 126.657 105.93 119.934 119.824 119.134C121.415 119.043 122.978 118.997 124.509 118.997C129.554 118.997 134.275 119.486 138.567 120.428C136.967 140.418 127.58 143.663 119.303 144.12Z"
            fill="#111827" />
    </g>
    <defs>
        <clipPath id="clip0_58_7">
            <rect width="234" height="234" fill="white" />
        </clipPath>
    </defs>
</svg>